# xmcd
#
# Track frame offsets:
#	150
#	12146
#	28497
#	47013
#	58928
#	72335
#	84270
#	96519
#	109872
#	130439
#
# Disc length: 1964 seconds
#
# Revision: 0
# Processed by: cddbd v1.5.1PL2 Copyright (c) Steve Scherf et al.
# Submitted via: dBpowerAMP V4.0
#
DISCID=8d07aa0a
DTITLE=Kenny Rogers - Christmas
DYEAR=1900
DGENRE=
TTITLE0=Christmas Everyday
TTITLE1=Kentucky Homemade Christmas
TTITLE2=Carol Of The Bells Kids
TTITLE3=Sweet Little Jesus Boy
TTITLE4=Christmas Is My Favourite Time Of The Year
TTITLE5=White Christmas
TTITLE6=My Favourite Things
TTITLE7=O Holy Night
TTITLE8=When A Child Is Born
TTITLE9=Merry Christmas
EXTD=
EXTT0=
EXTT1=
EXTT2=
EXTT3=
EXTT4=
EXTT5=
EXTT6=
EXTT7=
EXTT8=
EXTT9=
PLAYORDER=
